<svg width="1540.968798828125px" height="113.62753906249999px" xmlns="http://www.w3.org/2000/svg" viewBox="-520.4843994140625 18.186230468750004 1540.968798828125 113.62753906249999" style="background: none;" preserveAspectRatio="xMidYMid"><defs><linearGradient id="editing-glowing-gradient" x1="0.3705904774487394" x2="0.6294095225512606" y1="0.9829629131445341" y2="0.0170370868554659"><stop offset="0" stop-color="#1b3376"></stop><stop offset="1" stop-color="#363c53"></stop></linearGradient><filter id="editing-glowing" x="-100%" y="-100%" width="300%" height="300%"><feGaussianBlur in="SourceGraphic" result="blur" stdDeviation="8"></feGaussianBlur><feMerge><feMergeNode in="blur"></feMergeNode><feMergeNode in="SourceGraphic"></feMergeNode></feMerge></filter></defs><g filter="url(#editing-glowing)"><g transform="translate(-306.6028027534485, 102.17000007629395)"><path d="M6.02 0L-0.77 0L9.91-38.94L22.24-38.94L24.96-16.70L35.93-38.94L46.26-38.94L47.32-9.79L47.32-9.79Q47.55-4.01 50.39-2.24L50.39-2.24L50.39-2.24Q49.74-1.06 47.85 0.06L47.85 0.06L47.85 0.06Q45.96 1.18 43.45 1.18L43.45 1.18L43.45 1.18Q40.95 1.18 39.47 0.47L39.47 0.47L39.47 0.47Q38.00-0.24 37.17-1.42L37.17-1.42L37.17-1.42Q35.70-3.54 35.70-7.61L35.70-7.61L35.70-25.84L24.07 0L16.76 0L12.63-26.49L6.02 0ZM65.78 1.18L65.78 1.18L65.78 1.18Q52.80 1.18 52.80-11.03L52.80-11.03L52.80-11.03Q52.80-19.71 57.58-25.31L57.58-25.31L57.58-25.31Q62.66-31.27 71.45-31.27L71.45-31.27L71.45-31.27Q77.82-31.27 81.07-28.32L81.07-28.32L81.07-28.32Q84.31-25.37 84.31-19.18L84.31-19.18L84.31-19.18Q84.31-9.74 79.24-4.25L79.24-4.25L79.24-4.25Q74.28 1.18 65.78 1.18ZM67.32-24.49L67.32-24.49L67.32-24.49Q66.61-22.89 66.05-20.50L66.05-20.50L66.05-20.50Q65.49-18.11 64.78-14.34L64.78-14.34L64.78-14.34Q64.07-10.56 64.07-5.90L64.07-5.90L64.07-5.90Q64.07-4.37 64.58-3.36L64.58-3.36L64.58-3.36Q65.08-2.36 66.43-2.36L66.43-2.36L66.43-2.36Q67.79-2.36 68.65-3.01L68.65-3.01L68.65-3.01Q69.50-3.66 70.15-5.19L70.15-5.19L70.15-5.19Q71.33-7.91 72.28-12.95L72.28-12.95L72.28-12.95Q73.22-18.00 73.31-20.18L73.31-20.18L73.31-20.18Q73.40-22.36 73.40-23.98L73.40-23.98L73.40-23.98Q73.40-25.61 72.92-26.67L72.92-26.67L72.92-26.67Q72.45-27.73 71.12-27.73L71.12-27.73L71.12-27.73Q69.80-27.73 68.91-26.90L68.91-26.90L68.91-26.90Q68.03-26.08 67.32-24.49ZM106.38-31.27L106.38-31.27L106.38-31.27Q108.50-31.27 110.15-30.80L110.15-30.80L110.15-30.80Q110.21-31.03 110.33-31.68L110.33-31.68L110.63-33.51L110.63-33.51Q110.86-34.69 111.22-36.64L111.22-36.64L112.16-41.30L123.90-42.48L117.35-8.26L117.35-8.26Q117.29-7.91 117.29-7.32L117.29-7.32L117.29-6.37L117.29-6.37Q117.29-5.07 117.94-4.10L117.94-4.10L117.94-4.10Q118.59-3.13 119.65-3.13L119.65-3.13L119.65-3.13Q118.47-0.35 114.87 0.83L114.87 0.83L114.87 0.83Q113.63 1.18 111.89 1.18L111.89 1.18L111.89 1.18Q110.15 1.18 108.56 0.27L108.56 0.27L108.56 0.27Q106.97-0.65 106.50-2.18L106.50-2.18L106.50-2.18Q105.55-0.65 103.66 0.27L103.66 0.27L103.66 0.27Q101.78 1.18 99.03 1.18L99.03 1.18L99.03 1.18Q96.29 1.18 94.02 0.47L94.02 0.47L94.02 0.47Q91.75-0.24 90.33-1.77L90.33-1.77L90.33-1.77Q87.73-4.78 87.73-11.62L87.73-11.62L87.73-11.62Q87.73-20.47 92.92-25.84L92.92-25.84L92.92-25.84Q98.12-31.27 106.38-31.27ZM105.96-27.73L105.96-27.73L105.96-27.73Q103.78-27.73 102.60-25.37L102.60-25.37L102.60-25.37Q101.42-23.01 100.21-17.17L100.21-17.17L100.21-17.17Q99.00-11.33 99.00-6.08L99.00-6.08L99.00-6.08Q99.00-2.48 101.13-2.48L101.13-2.48L101.13-2.48Q103.01-2.48 104.34-4.37L104.34-4.37L104.34-4.37Q105.67-6.25 106.20-9.38L106.20-9.38L109.39-26.67L109.39-26.67Q108.15-27.73 105.96-27.73ZM148.56-9.97L148.56-9.97L148.56-9.97Q150.04-8.97 150.04-6.76L150.04-6.76L150.04-6.76Q150.04-4.54 148.92-3.13L148.92-3.13L148.92-3.13Q147.80-1.71 145.97-0.77L145.97-0.77L145.97-0.77Q142.19 1.18 138.12 1.18L138.12 1.18L138.12 1.18Q134.05 1.18 131.66 0.30L131.66 0.30L131.66 0.30Q129.27-0.59 127.68-2.24L127.68-2.24L127.68-2.24Q124.55-5.37 124.55-11.09L124.55-11.09L124.55-11.09Q124.55-20.00 129.39-25.43L129.39-25.43L129.39-25.43Q134.58-31.27 143.61-31.27L143.61-31.27L143.61-31.27Q149.21-31.27 151.98-28.91L151.98-28.91L151.98-28.91Q154.05-27.14 154.05-24.25L154.05-24.25L154.05-24.25Q154.05-13.87 136.11-13.87L136.11-13.87L136.11-13.87Q135.88-12.33 135.88-11.03L135.88-11.03L135.88-11.03Q135.88-8.32 137.09-7.29L137.09-7.29L137.09-7.29Q138.30-6.25 140.54-6.25L140.54-6.25L140.54-6.25Q142.78-6.25 145.17-7.29L145.17-7.29L145.17-7.29Q147.56-8.32 148.56-9.97ZM136.53-16.40L136.53-16.40L136.53-16.40Q140.72-16.40 143.13-19.00L143.13-19.00L143.13-19.00Q145.55-21.48 145.55-25.43L145.55-25.43L145.55-25.43Q145.55-26.79 145.05-27.52L145.05-27.52L145.05-27.52Q144.55-28.26 143.55-28.26L143.55-28.26L143.55-28.26Q142.54-28.26 141.69-27.88L141.69-27.88L141.69-27.88Q140.83-27.49 139.95-26.20L139.95-26.20L139.95-26.20Q137.77-23.25 136.53-16.40ZM170.16-3.25L170.16-3.25L170.16-3.25Q168.33 1.18 162.49 1.18L162.49 1.18L162.49 1.18Q159.54 1.18 157.65-0.89L157.65-0.89L157.65-0.89Q156.11-2.60 156.11-4.54L156.11-4.54L156.11-4.54Q156.11-8.97 158.18-18.64L158.18-18.64L162.49-41.30L174.46-42.48L168.74-12.63L168.74-12.63Q167.74-8.26 167.74-6.73L167.74-6.73L167.74-6.73Q167.74-3.36 170.16-3.25ZM169.98 7.61L169.98 7.61L169.98 7.61Q174.52 2.71 174.52-3.42L174.52-3.42L174.52-3.42Q174.52-5.31 173.87-7.08L173.87-7.08L173.87-7.08Q174.58-7.55 176.00-7.88L176.00-7.88L176.00-7.88Q177.41-8.20 178.47-8.20L178.47-8.20L178.47-8.20Q181.07-8.20 182.61-6.81L182.61-6.81L182.61-6.81Q184.14-5.43 184.14-3.01L184.14-3.01L184.14-3.01Q184.14-0.59 183.19 1.36L183.19 1.36L183.19 1.36Q182.25 3.30 180.66 4.78L180.66 4.78L180.66 4.78Q177.24 7.97 172.52 7.97L172.52 7.97L172.52 7.97Q171.57 7.97 169.98 7.61ZM204.41-1.77L204.41-1.77L204.41-1.77Q203.02-3.30 202.40-5.72L202.40-5.72L202.40-5.72Q201.78-8.14 201.78-12.10L201.78-12.10L201.78-12.10Q201.78-16.05 203.14-19.65L203.14-19.65L203.14-19.65Q204.49-23.25 206.97-25.84L206.97-25.84L206.97-25.84Q212.05-31.27 220.42-31.27L220.42-31.27L220.42-31.27Q223.43-31.27 225.62-30.27L225.62-30.27L235.71-31.27L231.34-8.26L231.34-8.26Q231.16-7.55 231.16-6.25L231.16-6.25L231.16-6.25Q231.16-4.96 231.96-4.13L231.96-4.13L231.96-4.13Q232.76-3.30 233.94-3.19L233.94-3.19L233.94-3.19Q233.35-1.18 231.19 0L231.19 0L231.19 0Q229.04 1.18 226.62 1.18L226.62 1.18L226.62 1.18Q224.20 1.18 222.58 0.27L222.58 0.27L222.58 0.27Q220.96-0.65 220.48-2.18L220.48-2.18L220.48-2.18Q219.54-0.71 217.53 0.24L217.53 0.24L217.53 0.24Q215.53 1.18 212.84 1.18L212.84 1.18L212.84 1.18Q210.16 1.18 207.98 0.47L207.98 0.47L207.98 0.47Q205.79-0.24 204.41-1.77ZM216.85-25.72L216.85-25.72L216.85-25.72Q216.18-24.66 215.59-22.86L215.59-22.86L215.59-22.86Q215.00-21.06 214.02-16.25L214.02-16.25L214.02-16.25Q213.05-11.45 213.05-8.02L213.05-8.02L213.05-8.02Q213.05-4.60 213.58-3.60L213.58-3.60L213.58-3.60Q214.11-2.60 215.06-2.60L215.06-2.60L215.06-2.60Q216.94-2.60 218.33-4.40L218.33-4.40L218.33-4.40Q219.72-6.20 220.25-9.38L220.25-9.38L223.37-26.67L223.37-26.67Q222.14-27.73 220.69-27.73L220.69-27.73L220.69-27.73Q219.24-27.73 218.39-27.26L218.39-27.26L218.39-27.26Q217.53-26.79 216.85-25.72ZM267.62-24.54L267.62-24.54L267.62-24.54Q267.62-22.07 265.56-20.53L265.56-20.53L265.56-20.53Q263.49-19.00 260.13-19.00L260.13-19.00L260.13-19.00Q258.72-19.00 257.89-19.41L257.89-19.41L257.89-19.41Q258.54-20.95 258.74-22.86L258.74-22.86L258.74-22.86Q258.95-24.78 258.95-25.31L258.95-25.31L258.95-25.31Q258.95-27.79 257.24-27.79L257.24-27.79L257.24-27.79Q256.06-27.79 254.73-26.31L254.73-26.31L254.73-26.31Q253.41-24.84 252.28-22.54L252.28-22.54L252.28-22.54Q249.81-17.23 249.81-11.86L249.81-11.86L249.81-11.86Q249.81-8.91 250.93-7.58L250.93-7.58L250.93-7.58Q252.05-6.25 254.53-6.25L254.53-6.25L254.53-6.25Q257.95-6.25 260.66-9.09L260.66-9.09L260.66-9.09Q261.43-9.97 261.84-10.97L261.84-10.97L261.84-10.97Q264.08-9.79 264.08-6.55L264.08-6.55L264.08-6.55Q264.08-3.25 260.43-1.06L260.43-1.06L260.43-1.06Q256.65 1.18 250.63 1.18L250.63 1.18L250.63 1.18Q238.66 1.18 238.66-11.51L238.66-11.51L238.66-11.51Q238.66-20.77 243.91-26.08L243.91-26.08L243.91-26.08Q248.98-31.27 258.30-31.27L258.30-31.27L258.30-31.27Q267.62-31.27 267.62-24.54ZM270.16-5.90L270.16-5.90L270.16-5.90Q270.16-7.49 270.99-11.51L270.99-11.51L274.11-27.44L270.63-27.44L270.87-29.21L270.87-29.21Q277.95-31.33 284.79-36.52L284.79-36.52L287.63-36.52L286.21-30.09L290.81-30.09L290.28-27.44L285.74-27.44L282.73-11.51L282.73-11.51Q281.96-7.85 281.96-6.61L281.96-6.61L281.96-6.61Q281.96-3.78 284.44-3.19L284.44-3.19L284.44-3.19Q283.85-1.18 281.73 0L281.73 0L281.73 0Q279.60 1.18 276.59 1.18L276.59 1.18L276.59 1.18Q273.58 1.18 271.87-0.71L271.87-0.71L271.87-0.71Q270.16-2.60 270.16-5.90ZM303.14 1.18L303.14 1.18L303.14 1.18Q290.16 1.18 290.16-11.03L290.16-11.03L290.16-11.03Q290.16-19.71 294.94-25.31L294.94-25.31L294.94-25.31Q300.01-31.27 308.81-31.27L308.81-31.27L308.81-31.27Q315.18-31.27 318.42-28.32L318.42-28.32L318.42-28.32Q321.67-25.37 321.67-19.18L321.67-19.18L321.67-19.18Q321.67-9.74 316.59-4.25L316.59-4.25L316.59-4.25Q311.64 1.18 303.14 1.18ZM304.68-24.49L304.68-24.49L304.68-24.49Q303.97-22.89 303.41-20.50L303.41-20.50L303.41-20.50Q302.85-18.11 302.14-14.34L302.14-14.34L302.14-14.34Q301.43-10.56 301.43-5.90L301.43-5.90L301.43-5.90Q301.43-4.37 301.93-3.36L301.93-3.36L301.93-3.36Q302.43-2.36 303.79-2.36L303.79-2.36L303.79-2.36Q305.15-2.36 306.00-3.01L306.00-3.01L306.00-3.01Q306.86-3.66 307.51-5.19L307.51-5.19L307.51-5.19Q308.69-7.91 309.63-12.95L309.63-12.95L309.63-12.95Q310.58-18.00 310.66-20.18L310.66-20.18L310.66-20.18Q310.75-22.36 310.75-23.98L310.75-23.98L310.75-23.98Q310.75-25.61 310.28-26.67L310.28-26.67L310.28-26.67Q309.81-27.73 308.48-27.73L308.48-27.73L308.48-27.73Q307.15-27.73 306.27-26.90L306.27-26.90L306.27-26.90Q305.38-26.08 304.68-24.49ZM343.62-16.58L343.62-16.58L343.62-16.58Q345.74-20.36 345.74-24.19L345.74-24.19L345.74-24.19Q345.74-26.73 343.91-26.73L343.91-26.73L343.91-26.73Q342.49-26.73 341.02-24.31L341.02-24.31L341.02-24.31Q339.49-21.89 339.01-18.76L339.01-18.76L335.95 0L323.73 1.18L329.75-30.09L339.49-31.27L338.42-25.31L338.42-25.31Q341.31-31.27 347.80-31.27L347.80-31.27L347.80-31.27Q351.23-31.27 353.09-29.50L353.09-29.50L353.09-29.50Q354.94-27.73 354.94-24.10L354.94-24.10L354.94-24.10Q354.94-20.47 352.55-18.17L352.55-18.17L352.55-18.17Q350.16-15.87 346.09-15.87L346.09-15.87L346.09-15.87Q344.32-15.87 343.62-16.58ZM346.98 7.61L346.98 7.61L346.98 7.61Q351.52 2.71 351.52-3.42L351.52-3.42L351.52-3.42Q351.52-5.31 350.87-7.08L350.87-7.08L350.87-7.08Q351.58-7.55 353.00-7.88L353.00-7.88L353.00-7.88Q354.41-8.20 355.47-8.20L355.47-8.20L355.47-8.20Q358.07-8.20 359.60-6.81L359.60-6.81L359.60-6.81Q361.14-5.43 361.14-3.01L361.14-3.01L361.14-3.01Q361.14-0.59 360.19 1.36L360.19 1.36L360.19 1.36Q359.25 3.30 357.66 4.78L357.66 4.78L357.66 4.78Q354.24 7.97 349.52 7.97L349.52 7.97L349.52 7.97Q348.57 7.97 346.98 7.61ZM381.41-1.77L381.41-1.77L381.41-1.77Q380.02-3.30 379.40-5.72L379.40-5.72L379.40-5.72Q378.78-8.14 378.78-12.10L378.78-12.10L378.78-12.10Q378.78-16.05 380.14-19.65L380.14-19.65L380.14-19.65Q381.49-23.25 383.97-25.84L383.97-25.84L383.97-25.84Q389.05-31.27 397.42-31.27L397.42-31.27L397.42-31.27Q400.43-31.27 402.62-30.27L402.62-30.27L412.70-31.27L408.34-8.26L408.34-8.26Q408.16-7.55 408.16-6.25L408.16-6.25L408.16-6.25Q408.16-4.96 408.96-4.13L408.96-4.13L408.96-4.13Q409.75-3.30 410.93-3.19L410.93-3.19L410.93-3.19Q410.34-1.18 408.19 0L408.19 0L408.19 0Q406.04 1.18 403.62 1.18L403.62 1.18L403.62 1.18Q401.20 1.18 399.58 0.27L399.58 0.27L399.58 0.27Q397.95-0.65 397.48-2.18L397.48-2.18L397.48-2.18Q396.54-0.71 394.53 0.24L394.53 0.24L394.53 0.24Q392.53 1.18 389.84 1.18L389.84 1.18L389.84 1.18Q387.16 1.18 384.97 0.47L384.97 0.47L384.97 0.47Q382.79-0.24 381.41-1.77ZM393.85-25.72L393.85-25.72L393.85-25.72Q393.18-24.66 392.59-22.86L392.59-22.86L392.59-22.86Q392.00-21.06 391.02-16.25L391.02-16.25L391.02-16.25Q390.05-11.45 390.05-8.02L390.05-8.02L390.05-8.02Q390.05-4.60 390.58-3.60L390.58-3.60L390.58-3.60Q391.11-2.60 392.05-2.60L392.05-2.60L392.05-2.60Q393.94-2.60 395.33-4.40L395.33-4.40L395.33-4.40Q396.72-6.20 397.25-9.38L397.25-9.38L400.37-26.67L400.37-26.67Q399.13-27.73 397.69-27.73L397.69-27.73L397.69-27.73Q396.24-27.73 395.39-27.26L395.39-27.26L395.39-27.26Q394.53-26.79 393.85-25.72ZM440.85 1.18L440.85 1.18L440.85 1.18Q433.71 1.18 433.71-4.37L433.71-4.37L433.71-4.37Q433.77-5.90 434.24-8.50L434.24-8.50L435.30-13.92L435.30-13.92Q436.89-21.59 436.89-23.31L436.89-23.31L436.89-23.31Q436.89-26.73 434.89-26.73L434.89-26.73L434.89-26.73Q431.53-26.73 429.76-17.94L429.76-17.94L426.27 0L414.42 1.18L420.55-30.15L430.23-31.27L429.28-25.49L429.28-25.49Q432.06-31.27 440.55-31.27L440.55-31.27L440.55-31.27Q444.68-31.27 446.42-29.53L446.42-29.53L446.42-29.53Q448.16-27.79 448.16-23.90L448.16-23.90L448.16-23.90Q448.16-20.24 446.28-11.68L446.28-11.68L446.28-11.68Q445.39-7.85 445.39-6.40L445.39-6.40L445.39-6.40Q445.39-4.96 446.19-4.13L446.19-4.13L446.19-4.13Q446.98-3.30 448.16-3.19L448.16-3.19L448.16-3.19Q447.57-1.18 445.54 0L445.54 0L445.54 0Q443.50 1.18 440.85 1.18ZM471.47-31.27L471.47-31.27L471.47-31.27Q473.59-31.27 475.24-30.80L475.24-30.80L475.24-30.80Q475.30-31.03 475.42-31.68L475.42-31.68L475.72-33.51L475.72-33.51Q475.95-34.69 476.31-36.64L476.31-36.64L477.25-41.30L488.99-42.48L482.44-8.26L482.44-8.26Q482.38-7.91 482.38-7.32L482.38-7.32L482.38-6.37L482.38-6.37Q482.38-5.07 483.03-4.10L483.03-4.10L483.03-4.10Q483.68-3.13 484.74-3.13L484.74-3.13L484.74-3.13Q483.56-0.35 479.96 0.83L479.96 0.83L479.96 0.83Q478.73 1.18 476.99 1.18L476.99 1.18L476.99 1.18Q475.24 1.18 473.65 0.27L473.65 0.27L473.65 0.27Q472.06-0.65 471.59-2.18L471.59-2.18L471.59-2.18Q470.64-0.65 468.75 0.27L468.75 0.27L468.75 0.27Q466.87 1.18 464.12 1.18L464.12 1.18L464.12 1.18Q461.38 1.18 459.11 0.47L459.11 0.47L459.11 0.47Q456.84-0.24 455.42-1.77L455.42-1.77L455.42-1.77Q452.82-4.78 452.82-11.62L452.82-11.62L452.82-11.62Q452.82-20.47 458.02-25.84L458.02-25.84L458.02-25.84Q463.21-31.27 471.47-31.27ZM471.06-27.73L471.06-27.73L471.06-27.73Q468.87-27.73 467.69-25.37L467.69-25.37L467.69-25.37Q466.51-23.01 465.30-17.17L465.30-17.17L465.30-17.17Q464.09-11.33 464.09-6.08L464.09-6.08L464.09-6.08Q464.09-2.48 466.22-2.48L466.22-2.48L466.22-2.48Q468.11-2.48 469.43-4.37L469.43-4.37L469.43-4.37Q470.76-6.25 471.29-9.38L471.29-9.38L474.48-26.67L474.48-26.67Q473.24-27.73 471.06-27.73ZM506.10-24.66L506.10-24.66L506.10-24.66Q508.11-27.49 511.15-29.38L511.15-29.38L511.15-29.38Q514.18-31.27 517.90-31.27L517.90-31.27L517.90-31.27Q521.62-31.27 523.39-30.09L523.39-30.09L534.95-31.27L530.94-8.61L530.94-8.61Q528.88 2.95 524.51 7.49L524.51 7.49L524.51 7.49Q520.32 11.80 512.18 11.80L512.18 11.80L512.18 11.80Q505.98 11.80 502.44 9.85L502.44 9.85L502.44 9.85Q498.90 7.91 498.90 4.66L498.90 4.66L498.90 4.66Q498.90 2.24 500.73 0.86L500.73 0.86L500.73 0.86Q502.56-0.53 505.39-0.53L505.39-0.53L505.39-0.53Q507.87-0.53 509.76 0.59L509.76 0.59L509.76 0.59Q510.88 1.18 511.41 2.01L511.41 2.01L511.41 2.01Q510.05 3.19 510.05 5.13L510.05 5.13L510.05 5.13Q510.05 7.67 512.41 7.67L512.41 7.67L512.41 7.67Q516.37 7.67 518.61-1.65L518.61-1.65L518.61-1.65Q519.26-4.19 519.79-6.73L519.79-6.73L519.79-6.73Q517.13-3.48 511.12-3.48L511.12-3.48L511.12-3.48Q506.93-3.48 504.51-5.49L504.51-5.49L504.51-5.49Q502.09-7.49 502.09-12.21L502.09-12.21L502.09-12.21Q502.09-15.16 503.09-18.50L503.09-18.50L503.09-18.50Q504.10-21.83 506.10-24.66ZM513.77-12.04L513.77-12.04L513.77-12.04Q513.77-8.02 515.84-8.02L515.84-8.02L515.84-8.02Q517.25-8.02 518.61-9.56L518.61-9.56L518.61-9.56Q519.67-10.80 520.08-12.63L520.08-12.63L523.09-27.79L523.09-27.79Q522.80-27.85 522.50-27.97L522.50-27.97L522.50-27.97Q521.91-28.20 521.15-28.20L521.15-28.20L521.15-28.20Q517.55-28.20 515.42-22.30L515.42-22.30L515.42-22.30Q513.77-17.70 513.77-12.04ZM561.15-9.97L561.15-9.97L561.15-9.97Q562.62-8.97 562.62-6.76L562.62-6.76L562.62-6.76Q562.62-4.54 561.50-3.13L561.50-3.13L561.50-3.13Q560.38-1.71 558.55-0.77L558.55-0.77L558.55-0.77Q554.78 1.18 550.71 1.18L550.71 1.18L550.71 1.18Q546.63 1.18 544.25 0.30L544.25 0.30L544.25 0.30Q541.86-0.59 540.26-2.24L540.26-2.24L540.26-2.24Q537.14-5.37 537.14-11.09L537.14-11.09L537.14-11.09Q537.14-20.00 541.97-25.43L541.97-25.43L541.97-25.43Q547.17-31.27 556.19-31.27L556.19-31.27L556.19-31.27Q561.80-31.27 564.57-28.91L564.57-28.91L564.57-28.91Q566.64-27.14 566.64-24.25L566.64-24.25L566.64-24.25Q566.64-13.87 548.70-13.87L548.70-13.87L548.70-13.87Q548.46-12.33 548.46-11.03L548.46-11.03L548.46-11.03Q548.46-8.32 549.67-7.29L549.67-7.29L549.67-7.29Q550.88-6.25 553.13-6.25L553.13-6.25L553.13-6.25Q555.37-6.25 557.76-7.29L557.76-7.29L557.76-7.29Q560.15-8.32 561.15-9.97ZM549.11-16.40L549.11-16.40L549.11-16.40Q553.30-16.40 555.72-19.00L555.72-19.00L555.72-19.00Q558.14-21.48 558.14-25.43L558.14-25.43L558.14-25.43Q558.14-26.79 557.64-27.52L557.64-27.52L557.64-27.52Q557.14-28.26 556.13-28.26L556.13-28.26L556.13-28.26Q555.13-28.26 554.28-27.88L554.28-27.88L554.28-27.88Q553.42-27.49 552.53-26.20L552.53-26.20L552.53-26.20Q550.35-23.25 549.11-16.40ZM593.60 1.18L593.60 1.18L593.60 1.18Q586.46 1.18 586.46-4.37L586.46-4.37L586.46-4.37Q586.52-5.90 586.99-8.50L586.99-8.50L588.05-13.92L588.05-13.92Q589.65-21.59 589.65-23.31L589.65-23.31L589.65-23.31Q589.65-26.73 587.64-26.73L587.64-26.73L587.64-26.73Q584.28-26.73 582.51-17.94L582.51-17.94L579.03 0L567.17 1.18L573.30-30.15L582.98-31.27L582.03-25.49L582.03-25.49Q584.81-31.27 593.30-31.27L593.30-31.27L593.30-31.27Q597.43-31.27 599.17-29.53L599.17-29.53L599.17-29.53Q600.91-27.79 600.91-23.90L600.91-23.90L600.91-23.90Q600.91-20.24 599.03-11.68L599.03-11.68L599.03-11.68Q598.14-7.85 598.14-6.40L598.14-6.40L598.14-6.40Q598.14-4.96 598.94-4.13L598.94-4.13L598.94-4.13Q599.74-3.30 600.91-3.19L600.91-3.19L600.91-3.19Q600.33-1.18 598.29 0L598.29 0L598.29 0Q596.25 1.18 593.60 1.18ZM629.53-9.97L629.53-9.97L629.53-9.97Q631.01-8.97 631.01-6.76L631.01-6.76L631.01-6.76Q631.01-4.54 629.88-3.13L629.88-3.13L629.88-3.13Q628.76-1.71 626.93-0.77L626.93-0.77L626.93-0.77Q623.16 1.18 619.09 1.18L619.09 1.18L619.09 1.18Q615.02 1.18 612.63 0.30L612.63 0.30L612.63 0.30Q610.24-0.59 608.64-2.24L608.64-2.24L608.64-2.24Q605.52-5.37 605.52-11.09L605.52-11.09L605.52-11.09Q605.52-20.00 610.36-25.43L610.36-25.43L610.36-25.43Q615.55-31.27 624.57-31.27L624.57-31.27L624.57-31.27Q630.18-31.27 632.95-28.91L632.95-28.91L632.95-28.91Q635.02-27.14 635.02-24.25L635.02-24.25L635.02-24.25Q635.02-13.87 617.08-13.87L617.08-13.87L617.08-13.87Q616.85-12.33 616.85-11.03L616.85-11.03L616.85-11.03Q616.85-8.32 618.05-7.29L618.05-7.29L618.05-7.29Q619.26-6.25 621.51-6.25L621.51-6.25L621.51-6.25Q623.75-6.25 626.14-7.29L626.14-7.29L626.14-7.29Q628.53-8.32 629.53-9.97ZM617.49-16.40L617.49-16.40L617.49-16.40Q621.68-16.40 624.10-19.00L624.10-19.00L624.10-19.00Q626.52-21.48 626.52-25.43L626.52-25.43L626.52-25.43Q626.52-26.79 626.02-27.52L626.02-27.52L626.02-27.52Q625.52-28.26 624.52-28.26L624.52-28.26L624.52-28.26Q623.51-28.26 622.66-27.88L622.66-27.88L622.66-27.88Q621.80-27.49 620.92-26.20L620.92-26.20L620.92-26.20Q618.73-23.25 617.49-16.40ZM655.49-16.58L655.49-16.58L655.49-16.58Q657.61-20.36 657.61-24.19L657.61-24.19L657.61-24.19Q657.61-26.73 655.79-26.73L655.79-26.73L655.79-26.73Q654.37-26.73 652.89-24.31L652.89-24.31L652.89-24.31Q651.36-21.89 650.89-18.76L650.89-18.76L647.82 0L635.61 1.18L641.63-30.09L651.36-31.27L650.30-25.31L650.30-25.31Q653.19-31.27 659.68-31.27L659.68-31.27L659.68-31.27Q663.10-31.27 664.96-29.50L664.96-29.50L664.96-29.50Q666.82-27.73 666.82-24.10L666.82-24.10L666.82-24.10Q666.82-20.47 664.43-18.17L664.43-18.17L664.43-18.17Q662.04-15.87 657.97-15.87L657.97-15.87L657.97-15.87Q656.20-15.87 655.49-16.58ZM670.33-1.77L670.33-1.77L670.33-1.77Q668.94-3.30 668.32-5.72L668.32-5.72L668.32-5.72Q667.70-8.14 667.70-12.10L667.70-12.10L667.70-12.10Q667.70-16.05 669.06-19.65L669.06-19.65L669.06-19.65Q670.42-23.25 672.90-25.84L672.90-25.84L672.90-25.84Q677.97-31.27 686.35-31.27L686.35-31.27L686.35-31.27Q689.36-31.27 691.54-30.27L691.54-30.27L701.63-31.27L697.26-8.26L697.26-8.26Q697.09-7.55 697.09-6.25L697.09-6.25L697.09-6.25Q697.09-4.96 697.88-4.13L697.88-4.13L697.88-4.13Q698.68-3.30 699.86-3.19L699.86-3.19L699.86-3.19Q699.27-1.18 697.11 0L697.11 0L697.11 0Q694.96 1.18 692.54 1.18L692.54 1.18L692.54 1.18Q690.12 1.18 688.50 0.27L688.50 0.27L688.50 0.27Q686.88-0.65 686.41-2.18L686.41-2.18L686.41-2.18Q685.46-0.71 683.46 0.24L683.46 0.24L683.46 0.24Q681.45 1.18 678.77 1.18L678.77 1.18L678.77 1.18Q676.08 1.18 673.90 0.47L673.90 0.47L673.90 0.47Q671.72-0.24 670.33-1.77ZM682.78-25.72L682.78-25.72L682.78-25.72Q682.10-24.66 681.51-22.86L681.51-22.86L681.51-22.86Q680.92-21.06 679.95-16.25L679.95-16.25L679.95-16.25Q678.97-11.45 678.97-8.02L678.97-8.02L678.97-8.02Q678.97-4.60 679.50-3.60L679.50-3.60L679.50-3.60Q680.03-2.60 680.98-2.60L680.98-2.60L680.98-2.60Q682.87-2.60 684.25-4.40L684.25-4.40L684.25-4.40Q685.64-6.20 686.17-9.38L686.17-9.38L689.30-26.67L689.30-26.67Q688.06-27.73 686.61-27.73L686.61-27.73L686.61-27.73Q685.17-27.73 684.31-27.26L684.31-27.26L684.31-27.26Q683.46-26.79 682.78-25.72ZM718.92-3.25L718.92-3.25L718.92-3.25Q717.09 1.18 711.25 1.18L711.25 1.18L711.25 1.18Q708.30 1.18 706.41-0.89L706.41-0.89L706.41-0.89Q704.87-2.60 704.87-4.54L704.87-4.54L704.87-4.54Q704.87-8.97 706.94-18.64L706.94-18.64L711.25-41.30L723.22-42.48L717.50-12.63L717.50-12.63Q716.50-8.26 716.50-6.73L716.50-6.73L716.50-6.73Q716.50-3.36 718.92-3.25ZM738.03-3.25L738.03-3.25L738.03-3.25Q736.20 1.18 730.36 1.18L730.36 1.18L730.36 1.18Q727.41 1.18 725.52-0.89L725.52-0.89L725.52-0.89Q723.99-2.60 723.99-4.54L723.99-4.54L723.99-4.54Q723.99-8.97 726.05-18.64L726.05-18.64L730.36-41.30L742.34-42.48L736.62-12.63L736.62-12.63Q735.61-8.26 735.61-6.73L735.61-6.73L735.61-6.73Q735.61-3.36 738.03-3.25ZM761.81-6.67L761.81-6.67L761.81-6.67Q758.74-3.48 753.14-3.48L753.14-3.48L753.14-3.48Q746.11-3.48 744.64-8.61L744.64-8.61L744.64-8.61Q744.17-10.15 744.17-11.86L744.17-11.86L744.17-11.86Q744.17-13.57 744.52-15.34L744.52-15.34L747.29-30.09L759.27-31.27L756.03-14.10L756.03-14.10Q755.91-13.33 755.73-12.51L755.73-12.51L755.73-12.51Q755.55-11.68 755.55-10.83L755.55-10.83L755.55-10.83Q755.55-9.97 755.85-9.41L755.85-9.41L755.85-9.41Q756.14-8.85 756.56-8.50L756.56-8.50L756.56-8.50Q757.27-8.02 758.53-8.02L758.53-8.02L758.53-8.02Q759.80-8.02 760.89-9.56L760.89-9.56L760.89-9.56Q761.99-11.09 762.52-13.75L762.52-13.75L765.76-30.09L777.38-31.27L772.96-8.08L772.96-8.08Q770.78 3.25 766.29 7.73L766.29 7.73L766.29 7.73Q763.99 10.03 761.01 10.94L761.01 10.94L761.01 10.94Q758.03 11.86 754.20 11.86L754.20 11.86L754.20 11.86Q748.00 11.86 744.46 9.91L744.46 9.91L744.46 9.91Q740.92 7.97 740.92 4.72L740.92 4.72L740.92 4.72Q740.92 2.30 742.75 0.91L742.75 0.91L742.75 0.91Q744.58-0.47 747.41-0.47L747.41-0.47L747.41-0.47Q749.89-0.47 751.78 0.59L751.78 0.59L751.78 0.59Q752.90 1.24 753.43 2.06L753.43 2.06L753.43 2.06Q752.07 3.25 752.07 5.19L752.07 5.19L752.07 5.19Q752.07 7.79 754.43 7.79L754.43 7.79L754.43 7.79Q758.33 7.79 760.57-1.18L760.57-1.18L760.57-1.18Q761.22-3.84 761.81-6.67ZM794.23-1.77L794.23-1.77L794.23-1.77Q792.84-3.30 792.22-5.72L792.22-5.72L792.22-5.72Q791.60-8.14 791.60-12.10L791.60-12.10L791.60-12.10Q791.60-16.05 792.96-19.65L792.96-19.65L792.96-19.65Q794.32-23.25 796.80-25.84L796.80-25.84L796.80-25.84Q801.87-31.27 810.25-31.27L810.25-31.27L810.25-31.27Q813.26-31.27 815.44-30.27L815.44-30.27L825.53-31.27L821.16-8.26L821.16-8.26Q820.99-7.55 820.99-6.25L820.99-6.25L820.99-6.25Q820.99-4.96 821.78-4.13L821.78-4.13L821.78-4.13Q822.58-3.30 823.76-3.19L823.76-3.19L823.76-3.19Q823.17-1.18 821.01 0L821.01 0L821.01 0Q818.86 1.18 816.44 1.18L816.44 1.18L816.44 1.18Q814.02 1.18 812.40 0.27L812.40 0.27L812.40 0.27Q810.78-0.65 810.31-2.18L810.31-2.18L810.31-2.18Q809.36-0.71 807.36 0.24L807.36 0.24L807.36 0.24Q805.35 1.18 802.67 1.18L802.67 1.18L802.67 1.18Q799.98 1.18 797.80 0.47L797.80 0.47L797.80 0.47Q795.62-0.24 794.23-1.77ZM806.68-25.72L806.68-25.72L806.68-25.72Q806.00-24.66 805.41-22.86L805.41-22.86L805.41-22.86Q804.82-21.06 803.85-16.25L803.85-16.25L803.85-16.25Q802.87-11.45 802.87-8.02L802.87-8.02L802.87-8.02Q802.87-4.60 803.40-3.60L803.40-3.60L803.40-3.60Q803.93-2.60 804.88-2.60L804.88-2.60L804.88-2.60Q806.77-2.60 808.15-4.40L808.15-4.40L808.15-4.40Q809.54-6.20 810.07-9.38L810.07-9.38L813.20-26.67L813.20-26.67Q811.96-27.73 810.51-27.73L810.51-27.73L810.51-27.73Q809.07-27.73 808.21-27.26L808.21-27.26L808.21-27.26Q807.36-26.79 806.68-25.72ZM845.06-24.66L845.06-24.66L845.06-24.66Q847.06-27.49 850.10-29.38L850.10-29.38L850.10-29.38Q853.14-31.27 856.86-31.27L856.86-31.27L856.86-31.27Q860.57-31.27 862.34-30.09L862.34-30.09L873.91-31.27L869.90-8.61L869.90-8.61Q867.83 2.95 863.47 7.49L863.47 7.49L863.47 7.49Q859.28 11.80 851.13 11.80L851.13 11.80L851.13 11.80Q844.94 11.80 841.40 9.85L841.40 9.85L841.40 9.85Q837.86 7.91 837.86 4.66L837.86 4.66L837.86 4.66Q837.86 2.24 839.69 0.86L839.69 0.86L839.69 0.86Q841.52-0.53 844.35-0.53L844.35-0.53L844.35-0.53Q846.83-0.53 848.72 0.59L848.72 0.59L848.72 0.59Q849.84 1.18 850.37 2.01L850.37 2.01L850.37 2.01Q849.01 3.19 849.01 5.13L849.01 5.13L849.01 5.13Q849.01 7.67 851.37 7.67L851.37 7.67L851.37 7.67Q855.32 7.67 857.57-1.65L857.57-1.65L857.57-1.65Q858.21-4.19 858.75-6.73L858.75-6.73L858.75-6.73Q856.09-3.48 850.07-3.48L850.07-3.48L850.07-3.48Q845.88-3.48 843.46-5.49L843.46-5.49L843.46-5.49Q841.05-7.49 841.05-12.21L841.05-12.21L841.05-12.21Q841.05-15.16 842.05-18.50L842.05-18.50L842.05-18.50Q843.05-21.83 845.06-24.66ZM852.73-12.04L852.73-12.04L852.73-12.04Q852.73-8.02 854.79-8.02L854.79-8.02L854.79-8.02Q856.21-8.02 857.57-9.56L857.57-9.56L857.57-9.56Q858.63-10.80 859.04-12.63L859.04-12.63L862.05-27.79L862.05-27.79Q861.75-27.85 861.46-27.97L861.46-27.97L861.46-27.97Q860.87-28.20 860.10-28.20L860.10-28.20L860.10-28.20Q856.50-28.20 854.38-22.30L854.38-22.30L854.38-22.30Q852.73-17.70 852.73-12.04ZM889.07 1.18L889.07 1.18L889.07 1.18Q876.09 1.18 876.09-11.03L876.09-11.03L876.09-11.03Q876.09-19.71 880.87-25.31L880.87-25.31L880.87-25.31Q885.94-31.27 894.74-31.27L894.74-31.27L894.74-31.27Q901.11-31.27 904.35-28.32L904.35-28.32L904.35-28.32Q907.60-25.37 907.60-19.18L907.60-19.18L907.60-19.18Q907.60-9.74 902.52-4.25L902.52-4.25L902.52-4.25Q897.57 1.18 889.07 1.18ZM890.61-24.49L890.61-24.49L890.61-24.49Q889.90-22.89 889.34-20.50L889.34-20.50L889.34-20.50Q888.78-18.11 888.07-14.34L888.07-14.34L888.07-14.34Q887.36-10.56 887.36-5.90L887.36-5.90L887.36-5.90Q887.36-4.37 887.86-3.36L887.86-3.36L887.86-3.36Q888.36-2.36 889.72-2.36L889.72-2.36L889.72-2.36Q891.08-2.36 891.93-3.01L891.93-3.01L891.93-3.01Q892.79-3.66 893.44-5.19L893.44-5.19L893.44-5.19Q894.62-7.91 895.56-12.95L895.56-12.95L895.56-12.95Q896.51-18.00 896.59-20.18L896.59-20.18L896.59-20.18Q896.68-22.36 896.68-23.98L896.68-23.98L896.68-23.98Q896.68-25.61 896.21-26.67L896.21-26.67L896.21-26.67Q895.74-27.73 894.41-27.73L894.41-27.73L894.41-27.73Q893.08-27.73 892.20-26.90L892.20-26.90L892.20-26.90Q891.31-26.08 890.61-24.49ZM923.94 1.18L923.94 1.18L923.94 1.18Q910.96 1.18 910.96-11.03L910.96-11.03L910.96-11.03Q910.96-19.71 915.74-25.31L915.74-25.31L915.74-25.31Q920.81-31.27 929.60-31.27L929.60-31.27L929.60-31.27Q935.98-31.27 939.22-28.32L939.22-28.32L939.22-28.32Q942.47-25.37 942.47-19.18L942.47-19.18L942.47-19.18Q942.47-9.74 937.39-4.25L937.39-4.25L937.39-4.25Q932.44 1.18 923.94 1.18ZM925.47-24.49L925.47-24.49L925.47-24.49Q924.77-22.89 924.21-20.50L924.21-20.50L924.21-20.50Q923.65-18.11 922.94-14.34L922.94-14.34L922.94-14.34Q922.23-10.56 922.23-5.90L922.23-5.90L922.23-5.90Q922.23-4.37 922.73-3.36L922.73-3.36L922.73-3.36Q923.23-2.36 924.59-2.36L924.59-2.36L924.59-2.36Q925.95-2.36 926.80-3.01L926.80-3.01L926.80-3.01Q927.66-3.66 928.31-5.19L928.31-5.19L928.31-5.19Q929.49-7.91 930.43-12.95L930.43-12.95L930.43-12.95Q931.37-18.00 931.46-20.18L931.46-20.18L931.46-20.18Q931.55-22.36 931.55-23.98L931.55-23.98L931.55-23.98Q931.55-25.61 931.08-26.67L931.08-26.67L931.08-26.67Q930.61-27.73 929.28-27.73L929.28-27.73L929.28-27.73Q927.95-27.73 927.07-26.90L927.07-26.90L927.07-26.90Q926.18-26.08 925.47-24.49ZM964.53-31.27L964.53-31.27L964.53-31.27Q966.66-31.27 968.31-30.80L968.31-30.80L968.31-30.80Q968.37-31.03 968.49-31.68L968.49-31.68L968.78-33.51L968.78-33.51Q969.02-34.69 969.37-36.64L969.37-36.64L970.31-41.30L982.06-42.48L975.51-8.26L975.51-8.26Q975.45-7.91 975.45-7.32L975.45-7.32L975.45-6.37L975.45-6.37Q975.45-5.07 976.10-4.10L976.10-4.10L976.10-4.10Q976.75-3.13 977.81-3.13L977.81-3.13L977.81-3.13Q976.63-0.35 973.03 0.83L973.03 0.83L973.03 0.83Q971.79 1.18 970.05 1.18L970.05 1.18L970.05 1.18Q968.31 1.18 966.72 0.27L966.72 0.27L966.72 0.27Q965.12-0.65 964.65-2.18L964.65-2.18L964.65-2.18Q963.71-0.65 961.82 0.27L961.82 0.27L961.82 0.27Q959.93 1.18 957.19 1.18L957.19 1.18L957.19 1.18Q954.44 1.18 952.17 0.47L952.17 0.47L952.17 0.47Q949.90-0.24 948.48-1.77L948.48-1.77L948.48-1.77Q945.89-4.78 945.89-11.62L945.89-11.62L945.89-11.62Q945.89-20.47 951.08-25.84L951.08-25.84L951.08-25.84Q956.27-31.27 964.53-31.27ZM964.12-27.73L964.12-27.73L964.12-27.73Q961.94-27.73 960.76-25.37L960.76-25.37L960.76-25.37Q959.58-23.01 958.37-17.17L958.37-17.17L958.37-17.17Q957.16-11.33 957.16-6.08L957.16-6.08L957.16-6.08Q957.16-2.48 959.28-2.48L959.28-2.48L959.28-2.48Q961.17-2.48 962.50-4.37L962.50-4.37L962.50-4.37Q963.82-6.25 964.36-9.38L964.36-9.38L967.54-26.67L967.54-26.67Q966.30-27.73 964.12-27.73ZM994.21-2.83L994.21-2.83L1001.53-41.30L1013.50-42.48L1011.67-33.45L1011.67-33.45Q1011.02-30.68 1010.20-28.73L1010.20-28.73L1010.20-28.73Q1011.50-30.39 1014.33-31.03L1014.33-31.03L1014.33-31.03Q1015.15-31.27 1016.16-31.27L1016.16-31.27L1016.16-31.27Q1021.64-31.27 1024.65-27.94L1024.65-27.94L1024.65-27.94Q1027.66-24.60 1027.66-18.17L1027.66-18.17L1027.66-18.17Q1027.66-9.79 1022.88-4.54L1022.88-4.54L1022.88-4.54Q1017.75 1.18 1008.43 1.18L1008.43 1.18L1008.43 1.18Q1002.00 1.18 997.16-0.94L997.16-0.94L997.16-0.94Q995.45-1.71 994.21-2.83ZM1009.20-20.65L1006.07-3.36L1006.07-3.36Q1007.31-2.30 1008.84-2.30L1008.84-2.30L1008.84-2.30Q1010.38-2.30 1011.26-2.89L1011.26-2.89L1011.26-2.89Q1012.15-3.48 1012.79-4.66L1012.79-4.66L1012.79-4.66Q1014.56-7.85 1015.98-17.58L1015.98-17.58L1015.98-17.58Q1016.39-20.36 1016.39-23.13L1016.39-23.13L1016.39-23.13Q1016.39-25.90 1015.77-26.79L1015.77-26.79L1015.77-26.79Q1015.15-27.67 1013.97-27.67L1013.97-27.67L1013.97-27.67Q1010.38-27.67 1009.20-20.65L1009.20-20.65ZM1044.06 1.18L1044.06 1.18L1044.06 1.18Q1031.08 1.18 1031.08-11.03L1031.08-11.03L1031.08-11.03Q1031.08-19.71 1035.86-25.31L1035.86-25.31L1035.86-25.31Q1040.94-31.27 1049.73-31.27L1049.73-31.27L1049.73-31.27Q1056.10-31.27 1059.35-28.32L1059.35-28.32L1059.35-28.32Q1062.59-25.37 1062.59-19.18L1062.59-19.18L1062.59-19.18Q1062.59-9.74 1057.52-4.25L1057.52-4.25L1057.52-4.25Q1052.56 1.18 1044.06 1.18ZM1045.60-24.49L1045.60-24.49L1045.60-24.49Q1044.89-22.89 1044.33-20.50L1044.33-20.50L1044.33-20.50Q1043.77-18.11 1043.06-14.34L1043.06-14.34L1043.06-14.34Q1042.35-10.56 1042.35-5.90L1042.35-5.90L1042.35-5.90Q1042.35-4.37 1042.85-3.36L1042.85-3.36L1042.85-3.36Q1043.36-2.36 1044.71-2.36L1044.71-2.36L1044.71-2.36Q1046.07-2.36 1046.93-3.01L1046.93-3.01L1046.93-3.01Q1047.78-3.66 1048.43-5.19L1048.43-5.19L1048.43-5.19Q1049.61-7.91 1050.55-12.95L1050.55-12.95L1050.55-12.95Q1051.50-18.00 1051.59-20.18L1051.59-20.18L1051.59-20.18Q1051.68-22.36 1051.68-23.98L1051.68-23.98L1051.68-23.98Q1051.68-25.61 1051.20-26.67L1051.20-26.67L1051.20-26.67Q1050.73-27.73 1049.40-27.73L1049.40-27.73L1049.40-27.73Q1048.08-27.73 1047.19-26.90L1047.19-26.90L1047.19-26.90Q1046.31-26.08 1045.60-24.49ZM1084.83-6.67L1084.83-6.67L1084.83-6.67Q1081.76-3.48 1076.16-3.48L1076.16-3.48L1076.16-3.48Q1069.14-3.48 1067.66-8.61L1067.66-8.61L1067.66-8.61Q1067.19-10.15 1067.19-11.86L1067.19-11.86L1067.19-11.86Q1067.19-13.57 1067.55-15.34L1067.55-15.34L1070.32-30.09L1082.30-31.27L1079.05-14.10L1079.05-14.10Q1078.93-13.33 1078.76-12.51L1078.76-12.51L1078.76-12.51Q1078.58-11.68 1078.58-10.83L1078.58-10.83L1078.58-10.83Q1078.58-9.97 1078.87-9.41L1078.87-9.41L1078.87-9.41Q1079.17-8.85 1079.58-8.50L1079.58-8.50L1079.58-8.50Q1080.29-8.02 1081.56-8.02L1081.56-8.02L1081.56-8.02Q1082.83-8.02 1083.92-9.56L1083.92-9.56L1083.92-9.56Q1085.01-11.09 1085.54-13.75L1085.54-13.75L1088.79-30.09L1100.41-31.27L1095.98-8.08L1095.98-8.08Q1093.80 3.25 1089.32 7.73L1089.32 7.73L1089.32 7.73Q1087.02 10.03 1084.04 10.94L1084.04 10.94L1084.04 10.94Q1081.06 11.86 1077.22 11.86L1077.22 11.86L1077.22 11.86Q1071.03 11.86 1067.49 9.91L1067.49 9.91L1067.49 9.91Q1063.95 7.97 1063.95 4.72L1063.95 4.72L1063.95 4.72Q1063.95 2.30 1065.78 0.91L1065.78 0.91L1065.78 0.91Q1067.61-0.47 1070.44-0.47L1070.44-0.47L1070.44-0.47Q1072.91-0.47 1074.80 0.59L1074.80 0.59L1074.80 0.59Q1075.92 1.24 1076.45 2.06L1076.45 2.06L1076.45 2.06Q1075.10 3.25 1075.10 5.19L1075.10 5.19L1075.10 5.19Q1075.10 7.79 1077.46 7.79L1077.46 7.79L1077.46 7.79Q1081.35 7.79 1083.59-1.18L1083.59-1.18L1083.59-1.18Q1084.24-3.84 1084.83-6.67ZM1100.76-3.48L1100.76-3.48L1100.76-3.48Q1100.76-5.72 1102.50-6.96L1102.50-6.96L1102.50-6.96Q1104.24-8.20 1106.72-8.20L1106.72-8.20L1106.72-8.20Q1109.20-8.20 1110.70-6.96L1110.70-6.96L1110.70-6.96Q1112.21-5.72 1112.21-3.48L1112.21-3.48L1112.21-3.48Q1112.21-1.24 1110.53-0.03L1110.53-0.03L1110.53-0.03Q1108.85 1.18 1106.37 1.18L1106.37 1.18L1106.37 1.18Q1103.89 1.18 1102.33-0.03L1102.33-0.03L1102.33-0.03Q1100.76-1.24 1100.76-3.48Z" fill="url(#editing-glowing-gradient)"></path></g></g><style>text {
  font-size: 64px;
  font-family: Arial Black;
  dominant-baseline: central;
  text-anchor: middle;
}</style></svg>